<svg id="Layer_1" data-name="Layer 1" xmlns="http://www.w3.org/2000/svg" viewBox="0 0 512 135.12"><defs><style>.cls-1{fill:#e84409;}</style></defs><title>LOGO</title><path class="cls-1" d="M50.56,322.18a50.75,50.75,0,0,1-26.1-6.69,48.23,48.23,0,0,1-18-18.13A51.65,51.65,0,0,1,0,271.43a53.47,53.47,0,0,1,6.41-26.38A46.71,46.71,0,0,1,24,227a50,50,0,0,1,25.65-6.51,47,47,0,0,1,19.78,4.12A47.7,47.7,0,0,1,85.55,237a6.6,6.6,0,0,1,1.83,6,9.49,9.49,0,0,1-4,5.49,7,7,0,0,1-5.69,1.19,11.06,11.06,0,0,1-5.67-3.2A29.48,29.48,0,0,0,49.65,237a31.32,31.32,0,0,0-16.49,4.31A29.92,29.92,0,0,0,22,253.3a38.51,38.51,0,0,0-4,18.13A36.75,36.75,0,0,0,22.07,289,31.39,31.39,0,0,0,33.53,301.2a32,32,0,0,0,17,4.49,36.89,36.89,0,0,0,11.27-1.56,26.69,26.69,0,0,0,8.88-4.85,11.17,11.17,0,0,1,6.05-2.66,7.21,7.21,0,0,1,5.49,1.74,8.8,8.8,0,0,1,3.49,5.77,6.83,6.83,0,0,1-2.2,5.78Q70.34,322.18,50.56,322.18Z" transform="translate(0 -187.9)"/><path class="cls-1" d="M195.2,245a51.47,51.47,0,0,0-89,0,51.81,51.81,0,0,0-6.8,26.45,54.9,54.9,0,0,0,6.24,26.35,48.32,48.32,0,0,0,17,18.44,47.24,47.24,0,0,0,48.8,0A47.32,47.32,0,0,0,183,305.89V313a9.5,9.5,0,1,0,19,0V271.44A51.81,51.81,0,0,0,195.2,245Zm-16,43.94a31.93,31.93,0,0,1-11.54,12.27,33,33,0,0,1-33.25,0,32.31,32.31,0,0,1-11.72-12.27,35.54,35.54,0,0,1-4.31-17.5,36,36,0,0,1,4.31-17.68,32.31,32.31,0,0,1,11.72-12.27,33,33,0,0,1,33.25,0,31.93,31.93,0,0,1,11.54,12.27,36.58,36.58,0,0,1,4.22,17.68A36.15,36.15,0,0,1,179.19,288.93Z" transform="translate(0 -187.9)"/><path class="cls-1" d="M256,322.18a69.26,69.26,0,0,1-23.73-3.94q-10.89-3.93-16.94-10a8,8,0,0,1-2.29-6.69,8.8,8.8,0,0,1,3.57-6.14c2.44-1.95,4.85-2.78,7.23-2.47a9.87,9.87,0,0,1,6.14,3.2q3.12,3.48,10,6.51a37.63,37.63,0,0,0,15.29,3q10.63,0,16.22-3.48t5.77-9q.18-5.49-5.22-9.52t-19.7-6.6q-18.51-3.66-26.84-11a23,23,0,0,1-8.33-18q0-9.34,5.49-15.48a33.36,33.36,0,0,1,14.11-9.16,53.68,53.68,0,0,1,18-3,56,56,0,0,1,21.43,3.85A36.63,36.63,0,0,1,291,235a8.45,8.45,0,0,1,2.38,6.13,7.11,7.11,0,0,1-3.11,5.41,9,9,0,0,1-7,1.28,13.21,13.21,0,0,1-6.78-3.3,25,25,0,0,0-9.89-6,41.41,41.41,0,0,0-12.27-1.65,30.61,30.61,0,0,0-13.65,2.75q-5.6,2.74-5.59,8.06a10.63,10.63,0,0,0,1.74,5.95q1.74,2.66,6.87,4.76a88.18,88.18,0,0,0,15,4.13q13.72,2.75,21.7,7t11.45,9.8a23.9,23.9,0,0,1,3.48,12.91,27,27,0,0,1-4.48,15.21,31,31,0,0,1-13.19,10.81Q269,322.18,256,322.18Z" transform="translate(0 -187.9)"/><path class="cls-1" d="M365.69,305.66A7.48,7.48,0,0,0,359.9,303h-6.46a12.77,12.77,0,0,1-10.26-5.13A19.47,19.47,0,0,1,339,285.14V240h16.15c3.52,0,6.16-1.3,7.9-3.92a6.06,6.06,0,0,0,1-2.89,8,8,0,0,0-2.43-7,9.26,9.26,0,0,0-6.46-2.23H339V197.21a9,9,0,0,0-2.66-6.7,10.27,10.27,0,0,0-13.68,0,9,9,0,0,0-2.66,6.7V224h-8.74a9.24,9.24,0,0,0-6.46,2.23,7.63,7.63,0,0,0-2.47,6,7.21,7.21,0,0,0,2.47,5.59,9.24,9.24,0,0,0,6.46,2.23H320v45.14A39.89,39.89,0,0,0,324.37,304a33.89,33.89,0,0,0,12,13.2,31,31,0,0,0,17.1,4.85h3.42a12.09,12.09,0,0,0,8.08-2.66,8.58,8.58,0,0,0,3.13-6.84A9.88,9.88,0,0,0,365.69,305.66Z" transform="translate(0 -187.9)"/><circle class="cls-1" cx="393" cy="121.1" r="13"/><path class="cls-1" d="M434.36,322.64a7.88,7.88,0,0,1-7.88-7.87,39.18,39.18,0,0,0-39-39.3,7.88,7.88,0,1,1,0-15.76,55,55,0,0,1,54.73,55.06A7.88,7.88,0,0,1,434.36,322.64Z" transform="translate(0 -187.9)"/><path class="cls-1" d="M468.93,322.64a7.87,7.87,0,0,1-7.87-7.87c0-40.87-33-74.12-73.55-74.12a7.88,7.88,0,1,1,0-15.75c49.24,0,89.3,40.32,89.3,89.87A7.88,7.88,0,0,1,468.93,322.64Z" transform="translate(0 -187.9)"/><path class="cls-1" d="M504.12,322.64a7.87,7.87,0,0,1-7.87-7.87c0-60.41-48.78-109.55-108.74-109.55a7.88,7.88,0,1,1,0-15.75c68.64,0,124.49,56.21,124.49,125.3A7.88,7.88,0,0,1,504.12,322.64Z" transform="translate(0 -187.9)"/></svg>